# xmcd
#
# Track frame offsets:
#	150
#	10059
#	24185
#	37193
#	48815
#	60734
#	69269
#	83876
#	95870
#	109847
#	120994
#	135735
#	145289
#	157484
#
# Disc length: 2298 seconds
#
# Revision: 3
# Processed by: cddbd v1.5.2PL0 Copyright (c) Steve Scherf et al.
# Submitted via: audiograbber 1.83.01
#
DISCID=be08f80e
DTITLE=Marlene Leeson - You Belong to Me
DYEAR=2003
DGENRE=Country
TTITLE0=Silver Threads and Golden Needles
TTITLE1=Blanket on the Ground
TTITLE2=Crazy
TTITLE3=Honky Tonk Angels
TTITLE4=I'm Sorry
TTITLE5=Blue Moon of Kentucky
TTITLE6=Tonight the Heartache's on Me
TTITLE7=I Can't Help It If I'm Still in Love With You
TTITLE8=Tennessee Flat Top Box
TTITLE9=Just Out of Reach (of My Two Open Arms)
TTITLE10=Me and Bobby McGee
TTITLE11=Your Good Girl's Gonna Go Bad
TTITLE12=Rose Garden
TTITLE13=You Belong to Me
EXTD=www.marleneleeson.com YEAR: 2003
EXTT0=
EXTT1=
EXTT2=
EXTT3=
EXTT4=
EXTT5=
EXTT6=
EXTT7=
EXTT8=
EXTT9=
EXTT10=
EXTT11=
EXTT12=
EXTT13=
PLAYORDER=
